<svg version="1.1" id="fb" xmlns="http://www.w3.org/2000/svg" xmlns:xlink="http://www.w3.org/1999/xlink" x="0px" y="0px"
	 width="12.1px" height="26px" viewBox="0 0 12.1 26" style="enable-background:new 0 0 12.1 26;" xml:space="preserve">
<style type="text/css">
	.fb-st0{fill:#000918;}
</style>
<path id="Facebook_3_" class="fb-st0" d="M2.6,5.2c0,0.7,0,3.5,0,3.5H0V13h2.6v13h5.5V13h3.5c0,0,0.3-2,0.5-4.3c-0.5,0-4,0-4,0
	s0-2.5,0-2.9c0-0.4,0.5-1.1,1.1-1.1c0.6,0,1.8,0,2.9,0c0-0.6,0-2.6,0-4.6c-1.4,0-3.2,0-4,0C2.5,0,2.6,4.5,2.6,5.2z"/>
</svg>
