<svg version="1.1" id="twitter" xmlns="http://www.w3.org/2000/svg" xmlns:xlink="http://www.w3.org/1999/xlink" x="0px" y="0px"
	 width="27.5px" height="22.4px" viewBox="0 0 27.5 22.4" style="enable-background:new 0 0 27.5 22.4;" xml:space="preserve">
<style type="text/css">
	.twitter-st0{fill:#000918;}
</style>
<path class="twitter-st0" d="M27.5,2.6c-1,0.4-2.1,0.8-3.2,0.9c1.2-0.7,2.1-1.8,2.5-3.1c-1.1,0.6-2.3,1.1-3.6,1.4C22.1,0.7,20.7,0,19,0
	c-3.1,0-5.6,2.5-5.6,5.6c0,0.4,0,0.9,0.1,1.3C8.9,6.7,4.7,4.4,1.9,1C1.4,1.9,1.2,2.8,1.2,3.9c0,2,1,3.7,2.5,4.7
	c-0.9,0-1.8-0.3-2.6-0.7c0,0,0,0,0,0.1c0,2.7,1.9,5,4.5,5.5c-0.5,0.1-1,0.2-1.5,0.2c-0.4,0-0.7,0-1.1-0.1c0.7,2.2,2.8,3.9,5.3,3.9
	c-1.9,1.5-4.4,2.4-7,2.4c-0.5,0-0.9,0-1.3-0.1c2.5,1.6,5.5,2.5,8.7,2.5c10.4,0,16.1-8.6,16.1-16.1c0-0.2,0-0.5,0-0.7
	C25.8,4.8,26.7,3.8,27.5,2.6z"/>
</svg>
