<?xml version="1.0" encoding="utf-8"?>
<!-- Generator: Adobe Illustrator 23.0.1, SVG Export Plug-In . SVG Version: 6.00 Build 0)  -->
<svg version="1.1" id="Layer_1" xmlns="http://www.w3.org/2000/svg" xmlns:xlink="http://www.w3.org/1999/xlink" x="0px" y="0px"
	 viewBox="0 0 55.49 54.72" style="enable-background:new 0 0 55.49 54.72;" xml:space="preserve">
<style type="text/css">
	.st0{fill:#FFFFFF;}
</style>
<g>
	<path class="st0" d="M36.74,28.42h8.28l0.73,5.13h2.52V20.29h-2.52l-0.78,5.37h-8.23c0-3.49,0-13.41,0-15.62
		c0-2.41,0.04-4.79,0.11-7.14l0.47-0.06h12.63l1.23,7.11h3.19L53.98,0H42H24.86h-0.11v2.29l5.15,0.62c0.07,2.43,0.11,4.83,0.11,7.22
		c0,2.39,0,13.11,0,15.53H11.88c0-2.39,0-13.45,0-15.79c0-2.33,0.04-4.65,0.11-6.97l5.21-0.62V0H0v2.29l5.15,0.62
		c0.07,2.43,0.11,4.83,0.11,7.22c0,2.39,0,13.11,0,15.53v3.26c0,2.46,0,13.34,0,15.75c0,2.41-0.04,4.79-0.11,7.14L0,52.43v2.29
		h17.19v-2.29l-5.21-0.62c-0.08-2.35-0.11-4.74-0.11-7.16c0-2.42,0-13.46,0-16.22h18.13v0.01L36.74,28.42L36.74,28.42z"/>
	<path class="st0" d="M52.3,44.73l-1.23,7.16H37.57l-0.72-0.09c-0.08-2.42-0.11-4.83-0.11-7.22c0-2.15,0-10.93,0-14.43h-6.73
		c0,4.03,0,12.45,0,14.49c0,2.41-0.04,4.79-0.11,7.14l-5.15,0.62v2.29h0.11v0.03H42v-0.03h13.1l0.39-9.96H52.3z"/>
</g>
</svg>
