<?xml version="1.0" encoding="utf-8"?>
<!-- Generator: Adobe Illustrator 23.0.1, SVG Export Plug-In . SVG Version: 6.00 Build 0)  -->
<svg version="1.1" id="Layer_1" xmlns="http://www.w3.org/2000/svg" xmlns:xlink="http://www.w3.org/1999/xlink" x="0px" y="0px"
	 viewBox="0 0 333.73 26.14" style="enable-background:new 0 0 333.73 26.14;" xml:space="preserve">
<style type="text/css">
	.st0 {
		fill:#BE1E2D;
		clip-path: initial!important;
		}
	.st1{
		fill:#FFFFFF;
		clip-path: initial!important;
	}
</style>
<g>
	<path class="st0" d="M2.79,23.46V2.35L0,2.04V0h9.79v2.04L7.04,2.35v9.52H18.7V2.31l-2.75-0.27V0h9.72v2.04l-2.75,0.31v21.11
		l2.92,0.58v1.73H15.78v-1.73l2.92-0.58v-9.21H7.04v9.21L9.93,24v1.77H0V24L2.79,23.46z"/>
	<path class="st0" d="M36.79,24V7.86l-2.31-0.23V6.06h7.75v1.56l-2.21,0.23V24l2.37,0.42v1.35h-7.93v-1.35L36.79,24z"/>
	<path class="st0" d="M63.32,6.12c1.05,0.16,1.94,0.33,2.67,0.52l-0.23,3.95h-1.69L63.23,8.4c-0.17-0.21-0.61-0.4-1.3-0.58
		c-0.69-0.18-1.57-0.26-2.63-0.25c-1.2,0-2.27,0.34-3.21,1.03c-0.95,0.68-1.69,1.63-2.22,2.85c-0.54,1.21-0.81,2.6-0.81,4.16
		c0,1.59,0.22,3.07,0.66,4.42s1.13,2.44,2.05,3.26c0.93,0.82,2.08,1.23,3.44,1.23c0.8,0,1.56-0.12,2.27-0.35s1.23-0.59,1.55-1.08
		v-4.5l-2.91-0.26v-1.56h7.38v1.56l-1.43,0.26v6.27c-0.26-0.02-0.63,0.03-1.1,0.13s-0.97,0.22-1.49,0.34
		c-1.01,0.26-1.89,0.46-2.67,0.6c-0.77,0.14-1.54,0.21-2.3,0.21c-1.73,0-3.28-0.42-4.63-1.25s-2.4-1.98-3.15-3.46
		c-0.75-1.47-1.12-3.13-1.12-4.97c0-2.11,0.45-3.97,1.35-5.58c0.9-1.6,2.13-2.84,3.69-3.71c1.56-0.87,3.31-1.3,5.25-1.3
		C61.14,5.88,62.27,5.96,63.32,6.12z"/>
	<path class="st0" d="M76.85,24V7.86l-2.13-0.23V6.06h7.49v1.56L80.1,7.86v7.28h8.92V7.83l-2.11-0.21V6.06h7.44v1.56l-2.11,0.23V24
		l2.24,0.44v1.33h-7.7v-1.33L89.02,24v-7.05H80.1V24l2.21,0.42v1.35h-7.59v-1.35L76.85,24z"/>
	<path class="st0" d="M104.07,24V7.86l-1.98-0.23V6.06h13.62l0.36,3.87h-1.82l-0.81-2.08l-6.16-0.21v7.12l4.19-0.13l0.49-1.95h1.66
		v5.72h-1.66l-0.49-1.95l-4.19-0.08v7.77l6.81-0.29l1.4-2.57l1.72,0.36l-0.6,4.11h-14.59v-1.35L104.07,24z"/>
	<path class="st0" d="M137.26,7.08c1.24,0.8,1.86,2.13,1.86,4c0,1.39-0.37,2.58-1.12,3.57c-0.75,1-1.79,1.72-3.12,2.17
		c0.05,0.02,0.19,0.1,0.42,0.23c0.52,0.33,1,0.82,1.44,1.48c0.44,0.66,0.99,1.57,1.65,2.73c0.49,0.87,0.88,1.52,1.17,1.96
		c0.29,0.44,0.57,0.71,0.83,0.79l1.48,0.39v1.35h-4.29c-0.28,0-0.57-0.26-0.88-0.79c-0.31-0.53-0.73-1.37-1.25-2.51
		c-0.73-1.61-1.38-2.87-1.96-3.77c-0.58-0.9-1.21-1.35-1.88-1.35l-1.92,0.03V24l2.57,0.42v1.35h-8.11v-1.35l2.31-0.42V7.99
		l-2.03-0.23V6.06h3.17c0.36,0,0.71-0.01,1.04-0.03c0.33-0.02,0.63-0.03,0.91-0.05c1.07-0.07,1.92-0.1,2.55-0.1
		C134.3,5.88,136.02,6.28,137.26,7.08z M131.09,7.52c-0.69,0.03-1.16,0.1-1.4,0.18v8.01c0.4,0.05,1.03,0.08,1.9,0.08
		c1.42,0,2.5-0.34,3.22-1.03c0.73-0.68,1.09-1.79,1.09-3.31c0-1.28-0.34-2.27-1.03-2.96c-0.69-0.69-1.75-1.02-3.21-0.99
		C131.52,7.51,131.33,7.52,131.09,7.52z"/>
	<path class="st1" d="M151.71,23.46V2.35l-2.58-0.31V0h17.82l0.48,5.07h-2.38l-1.05-2.72l-8.06-0.27v9.32l5.47-0.17l0.65-2.55h2.18
		v7.48h-2.18l-0.65-2.55l-5.47-0.1v10.17l8.91-0.37l1.84-3.37l2.24,0.48l-0.78,5.37h-19.07V24L151.71,23.46z"/>
	<path class="st1" d="M188.64,6.09c0.73,0.14,1.48,0.31,2.26,0.52l0.62,0.16l-0.23,4.11h-1.79l-0.78-2.26
		c-0.42-0.33-0.87-0.57-1.37-0.71c-0.49-0.15-1.19-0.22-2.09-0.22c-1.16,0-2.21,0.33-3.13,0.99s-1.66,1.59-2.2,2.79
		c-0.54,1.21-0.81,2.6-0.81,4.2c0,1.58,0.25,3.04,0.74,4.38c0.49,1.34,1.22,2.42,2.18,3.22c0.96,0.81,2.12,1.21,3.47,1.21
		c1.87,0,3.1-0.44,3.69-1.33l0.83-2.16h1.51v3.95c-0.28,0.02-0.74,0.13-1.38,0.34c-0.82,0.26-1.62,0.47-2.41,0.62
		c-0.79,0.16-1.7,0.23-2.74,0.23c-1.82,0-3.44-0.4-4.86-1.2c-1.42-0.8-2.53-1.92-3.33-3.37c-0.8-1.45-1.2-3.12-1.2-5
		c0-2.06,0.48-3.91,1.43-5.54c0.95-1.63,2.24-2.89,3.86-3.8c1.62-0.9,3.38-1.35,5.29-1.35C187.11,5.88,187.92,5.95,188.64,6.09z"/>
	<path class="st1" d="M201.31,24V7.86l-2.13-0.23V6.06h7.49v1.56l-2.11,0.23v7.28h8.92V7.83l-2.11-0.21V6.06h7.44v1.56l-2.11,0.23
		V24l2.24,0.44v1.33h-7.7v-1.33l2.24-0.44v-7.05h-8.92V24l2.21,0.42v1.35h-7.59v-1.35L201.31,24z"/>
	<path class="st1" d="M228.53,24V7.86l-1.98-0.23V6.06h13.62l0.36,3.87h-1.82l-0.81-2.08l-6.16-0.21v7.12l4.19-0.13l0.49-1.95h1.66
		v5.72h-1.66l-0.49-1.95l-4.19-0.08v7.77l6.81-0.29l1.4-2.57l1.71,0.36l-0.6,4.11H226.5v-1.35L228.53,24z"/>
	<path class="st1" d="M250.91,24.03V8.01l-1.95-0.21V6.06h7.46v1.74l-2.24,0.23l-0.03,16.07l5.95-0.36l1.77-3.04l1.43,0.62
		l-0.86,4.45h-13.54v-1.35L250.91,24.03z"/>
	<path class="st1" d="M283.75,7.13c1.28,0.83,2.27,1.98,2.96,3.43s1.04,3.1,1.04,4.94c0,2.13-0.39,4-1.18,5.6
		c-0.79,1.6-1.88,2.84-3.26,3.72c-1.39,0.88-2.95,1.31-4.68,1.31s-3.27-0.42-4.6-1.25s-2.37-1.98-3.09-3.45
		c-0.73-1.46-1.09-3.12-1.09-4.98c0-2.08,0.42-3.93,1.26-5.54c0.84-1.61,1.96-2.84,3.37-3.69c1.49-0.9,3.09-1.35,4.81-1.35
		C280.98,5.88,282.47,6.3,283.75,7.13z M274.79,9.82c-0.93,1.55-1.39,3.68-1.39,6.38c0,1.42,0.22,2.77,0.66,4.04
		c0.44,1.27,1.08,2.31,1.91,3.09c0.83,0.79,1.82,1.18,2.96,1.18c1.79,0,3.11-0.77,3.97-2.3c0.86-1.53,1.29-3.68,1.29-6.44
		c0-1.51-0.21-2.89-0.64-4.16c-0.42-1.27-1.04-2.27-1.85-3.02c-0.81-0.75-1.75-1.12-2.82-1.12C277.09,7.49,275.72,8.27,274.79,9.82z
		"/>
	<path class="st1" d="M314.35,7.78l-1.98,0.23v17.76h-3.48l-7.83-12.61l-1.61-3.51l0.03,14.33l2.5,0.44v1.35h-6.84v-1.35l2.11-0.44
		V8.04l-2.03-0.23V6.06h5.23l8.16,13.65l1.53,3.3V8.04l-2.13-0.26V6.06h6.34V7.78z"/>
</g>
<g>
	<path class="st1" d="M321.43,6.03h4.53v1.5h-1.35v3.75h-1.81V7.53h-1.37V6.03z M333.73,6.03v5.25h-1.67l-0.04-3.03l-1.27,3.03
		h-1.23l-1.28-3.21v3.21h-1.57V6.03h2.44l1.1,3.08l1.29-3.08H333.73z"/>
</g>
</svg>
