<svg id="Layer_1" data-name="linkedin" xmlns="http://www.w3.org/2000/svg" xmlns:xlink="http://www.w3.org/1999/xlink" width="61" height="60.89" viewBox="0 0 61 60.89">
  <defs>
    <style>
      .linkedin-cls-1 {
        fill: none;
      }

      .linkedin-cls-2 {
        clip-path: url(#clip-path);
      }

      .linkedin-cls-3 {
        fill: #111627;
      }
    </style>
    <clipPath id="clip-path" transform="translate(0 0)">
      <rect class="linkedin-cls-1" width="61" height="60.89"/>
    </clipPath>
  </defs>
  <title>linkedin</title>
  <g class="linkedin-cls-2">
    <path class="linkedin-cls-3" d="M1,20.22H13.65V60.89H1ZM7.33,0A7.33,7.33,0,1,1,0,7.33,7.33,7.33,0,0,1,7.33,0" transform="translate(0 0)"/>
    <path class="linkedin-cls-3" d="M21.58,20.22H33.7v5.56h.17c1.69-3.2,5.81-6.57,12-6.57C58.64,19.21,61,27.63,61,38.58V60.89H48.37V41.11c0-4.71-.09-10.78-6.57-10.78s-7.59,5.14-7.59,10.44V60.89H21.58Z" transform="translate(0 0)"/>
  </g>
</svg>
