<svg id="Layer_1" data-name="Layer 1" xmlns="http://www.w3.org/2000/svg" xmlns:xlink="http://www.w3.org/1999/xlink" width="784.5" height="256.9" viewBox="0 0 784.5 256.9">
  <defs>
    <style>
      .cls-1 {
        fill: none;
      }

      .cls-2 {
        clip-path: url(#clip-path);
      }

      .cls-3 {
        clip-path: url(#clip-path-2);
      }

      .cls-4 {
        clip-path: url(#clip-path-3);
      }
    </style>
    <clipPath id="clip-path" transform="translate(43.3 17.5)">
      <path class="cls-1" d="M41.9,9.8a2.74,2.74,0,0,1,3,3V156.3a2.74,2.74,0,0,1-3,3H22.5c-2.1,0-3-1.1-3-3V38.2L7.9,39.7c-2.4.4-3.9-.9-3.9-3.4V18.4c0-2.4,1.1-3.7,3.6-3.9Z"/>
    </clipPath>
    <clipPath id="clip-path-2" transform="translate(43.3 17.5)">
      <path class="cls-1" d="M578.4,153c-2.7,1.6-3.8,3.5-3.8,6.4v23.3c0,3.5,1.9,5.4,5.4,5.4h29v-11c0-3.5,1.9-5.4,5.4-5.4h25.8c3.5,0,5.4,1.9,5.4,5.4v41.1c0,3.5-1.9,5.4-5.4,5.4H543.6c-3.5,0-5.4-1.9-5.4-5.4V139c0-5.1,1.9-7.2,7-9.9L609,94.8V55.1c0-7-4-10.7-10.7-10.7H585.4c-7.2,0-10.7,3.8-10.7,10.7V76a3.94,3.94,0,0,1-4.3,4.3H542.5c-3,0-4.3-1.6-4.3-4.3V47.6C538.2,22.4,551.6,9,576.8,9h30.1c25,0,38.6,13.4,38.6,38.6v63.3c0,5.1-2.1,7.2-7.2,9.9Z"/>
    </clipPath>
    <clipPath id="clip-path-3" transform="translate(43.3 17.5)">
      <path class="cls-1" d="M721.3,8.9a3.94,3.94,0,0,1,4.3,4.3V219.3a3.94,3.94,0,0,1-4.3,4.3H693.4c-3,0-4.3-1.6-4.3-4.3V49.7l-16.6,2.1c-3.5.5-5.6-1.3-5.6-4.8V21.3c0-3.5,1.6-5.4,5.1-5.6Z"/>
    </clipPath>
  </defs>
  <title>logo-1p21-2</title>
  <g>
    <g>
      <path id="SVGID" d="M41.9,9.8a2.74,2.74,0,0,1,3,3V156.3a2.74,2.74,0,0,1-3,3H22.5c-2.1,0-3-1.1-3-3V38.2L7.9,39.7c-2.4.4-3.9-.9-3.9-3.4V18.4c0-2.4,1.1-3.7,3.6-3.9Z" transform="translate(43.3 17.5)"/>
      <g class="cls-2">
        <g>
          <polygon points="125.6 1.5 124.4 44.9 141 1.5 125.6 1.5"/>
          <polygon points="21.1 1.5 64.9 1.5 78.8 86.7 23.3 8.9 21.1 1.5"/>
          <polygon points="87.9 1.5 102.6 1.5 114.7 58.1 73.6 79.5 87.9 1.5"/>
          <path d="M66.5-16S81.8,36.8,81.9,34.6s.4-50.6.4-50.6Z" transform="translate(43.3 17.5)"/>
          <polygon points="108.1 1.5 116.4 65.5 101 1.5 108.1 1.5"/>
          <polygon points="22.6 7.9 74.1 77.3 92.9 125.9 21.1 56.7 22.6 7.9"/>
          <polygon points="21.1 1.5 23.3 8.9 0 53.7 0 1.5 21.1 1.5"/>
          <polygon points="23.3 8.9 21.6 56.7 0 71.5 0 53.7 23.3 8.9"/>
          <polygon points="21.6 56.7 49.3 188 0 188 0 71.5 21.6 56.7"/>
          <path d="M-21.7,39.2s71.6,68.9,71.3,69.2-20.4,62.1-20.4,62.1H6Z" transform="translate(43.3 17.5)"/>
          <polygon points="114.7 58.1 74.1 77.3 92.9 125.9 114.7 58.1"/>
          <polygon points="61.9 1.5 87.9 1.5 74.1 77.3 61.9 1.5"/>
          <polygon points="92.9 125.9 114.1 188 71.9 188 92.9 125.9"/>
          <polygon points="92.9 125.9 147.2 143.5 155.9 161.6 155.9 188 111.6 188 92.9 125.9"/>
          <polygon points="114.7 58.1 147.2 143.5 92.9 125.9 114.7 58.1"/>
          <polygon points="114.7 58.1 124.4 44.9 147.2 143.5 114.7 58.1"/>
          <polygon points="140.3 1.5 155.9 1.5 155.9 127.8 147.2 143.5 124.4 44.9 140.3 1.5"/>
          <polygon points="107.6 1.5 114.7 58.1 124.4 44.9 109.8 1.5 107.6 1.5"/>
          <polygon points="147.2 143.5 155.9 127.8 155.9 161.6 147.2 143.5"/>
        </g>
      </g>
    </g>
    <path d="M74.8,12.8a2.74,2.74,0,0,1,3-3h44.9c17.6,0,26.9,9.3,26.9,26.9V82.3c0,17.4-9.3,26.9-26.9,26.9H100.3v47.1c0,1.9-.9,3-3,3H77.8a2.74,2.74,0,0,1-3-3Zm41.9,71.8c5,0,7.5-2.8,7.5-7.5V41.9c0-4.9-2.4-7.5-7.5-7.5H100.3V84.5h16.4Z" transform="translate(43.3 17.5)"/>
    <path d="M177.6,36.7c0-17.6,9.3-26.9,26.9-26.9h20.9c17.6,0,26.9,9.3,26.9,26.9v95.7c0,17.6-9.3,26.9-26.9,26.9H204.5c-17.6,0-26.9-9.3-26.9-26.9Zm43.2,98.5c4.9,0,7.5-2.4,7.5-7.5V41.4c0-4.9-2.6-7.5-7.5-7.5H210c-4.9,0-7.5,2.6-7.5,7.5v86.3c0,5,2.6,7.5,7.5,7.5Z" transform="translate(43.3 17.5)"/>
    <path d="M302.8,9.8a2.74,2.74,0,0,1,3,3V156.3a2.74,2.74,0,0,1-3,3H283.4c-2.1,0-3-1.1-3-3V12.8c0-1.9.9-3,3-3Z" transform="translate(43.3 17.5)"/>
    <path d="M410.6,9.8a2.74,2.74,0,0,1,3,3V156.3a2.74,2.74,0,0,1-3,3H392.1a3.23,3.23,0,0,1-3.4-2.4L360.1,77.1h-.9v79.2c0,1.9-.9,3-3,3H336.8a2.74,2.74,0,0,1-3-3V12.8a2.74,2.74,0,0,1,3-3h18.5a3.23,3.23,0,0,1,3.4,2.4l28.4,79.4h1.1V12.8c0-1.9.9-3,3-3Z" transform="translate(43.3 17.5)"/>
    <path d="M509.7,9.8c2.1,0,3,1.1,3,3V31.5c0,1.9-.9,3-3,3H488V156.4c0,2.1-.9,3-3,3H465.6c-1.9,0-3-.9-3-3V34.5H440.9a2.74,2.74,0,0,1-3-3V12.8a2.74,2.74,0,0,1,3-3Z" transform="translate(43.3 17.5)"/>
    <g>
      <path d="M20.7,223.1V197.5h4.5v25.6Z" transform="translate(43.3 17.5)"/>
      <path d="M74.5,223.1,61.2,204.8v18.3H56.7V197.5h4.6l13.1,17.7V197.5h4.5v25.6Z" transform="translate(43.3 17.5)"/>
      <path d="M116.4,223.1V201.5h-7.7v-3.9h20v3.9H121v21.6Z" transform="translate(43.3 17.5)"/>
      <path d="M158.5,223.1V197.5H176v3.9H163V208h12.8v3.9H163V219h13v3.9H158.5Z" transform="translate(43.3 17.5)"/>
      <path d="M221.3,223.1l-5.6-9.5h-4.5v9.5h-4.5V197.5H218c5.1,0,8.4,3.3,8.4,8a7.21,7.21,0,0,1-6.1,7.5l6.3,10h-5.3Zm.5-17.6c0-2.5-1.8-4-4.4-4h-6.2v8.1h6.2A4.07,4.07,0,0,0,221.8,205.5Z" transform="translate(43.3 17.5)"/>
      <path d="M274.9,223.1l-1.9-4.9H261.3l-1.9,4.9h-5.1l10-25.6h5.6l10,25.6ZM267.1,202l-4.6,12.2h9.2Z" transform="translate(43.3 17.5)"/>
      <path d="M306.3,210.3c0-7.9,5.9-13.2,13.4-13.2a11.28,11.28,0,0,1,10.2,5.7l-3.8,2a7.57,7.57,0,0,0-6.4-3.7c-5.1,0-8.8,3.8-8.8,9.2s3.8,9.2,8.8,9.2a7.57,7.57,0,0,0,6.4-3.7l3.8,1.9a11.64,11.64,0,0,1-10.3,5.8A12.79,12.79,0,0,1,306.3,210.3Z" transform="translate(43.3 17.5)"/>
      <path d="M365.7,223.1V201.5H358v-3.9h20v3.9h-7.7v21.6Z" transform="translate(43.3 17.5)"/>
      <path d="M407.8,223.1V197.5h4.5v25.6Z" transform="translate(43.3 17.5)"/>
      <path d="M451.2,223.1l-10-25.6h5.1l7.7,20.7,7.7-20.7h5.1l-10,25.6Z" transform="translate(43.3 17.5)"/>
      <path d="M495.7,223.1V197.5h17.5v3.9h-13V208H513v3.9H500.2V219h13v3.9H495.7Z" transform="translate(43.3 17.5)"/>
    </g>
    <g>
      <path id="SVGID-2" data-name="SVGID" d="M578.4,153c-2.7,1.6-3.8,3.5-3.8,6.4v23.3c0,3.5,1.9,5.4,5.4,5.4h29v-11c0-3.5,1.9-5.4,5.4-5.4h25.8c3.5,0,5.4,1.9,5.4,5.4v41.1c0,3.5-1.9,5.4-5.4,5.4H543.6c-3.5,0-5.4-1.9-5.4-5.4V139c0-5.1,1.9-7.2,7-9.9L609,94.8V55.1c0-7-4-10.7-10.7-10.7H585.4c-7.2,0-10.7,3.8-10.7,10.7V76a3.94,3.94,0,0,1-4.3,4.3H542.5c-3,0-4.3-1.6-4.3-4.3V47.6C538.2,22.4,551.6,9,576.8,9h30.1c25,0,38.6,13.4,38.6,38.6v63.3c0,5.1-2.1,7.2-7.2,9.9Z" transform="translate(43.3 17.5)"/>
      <g class="cls-3">
        <g>
          <polygon points="742.6 0 741.1 59.8 763.9 0 742.6 0"/>
          <polygon points="598.7 0 659 0 678.2 117.4 601.7 10.2 598.7 0"/>
          <polygon points="690.7 0 711 0 727.6 78 671 107.4 690.7 0"/>
          <path d="M677.5-17.5s21.1,72.8,21.2,69.8.6-69.8.6-69.8Z" transform="translate(43.3 17.5)"/>
          <polygon points="718.5 0 730 88.2 708.8 0 718.5 0"/>
          <polygon points="600.7 8.9 671.6 104.5 697.6 171.4 598.7 76.1 600.7 8.9"/>
          <polygon points="598.7 0 601.7 10.2 569.5 71.9 569.5 0 598.7 0"/>
          <polygon points="601.7 10.2 599.4 76.1 569.5 96.5 569.5 71.9 601.7 10.2"/>
          <polygon points="599.4 76.1 637.5 256.9 569.5 256.9 569.5 96.5 599.4 76.1"/>
          <path d="M556.1,58.6s98.6,95,98.2,95.3-28.1,85.5-28.1,85.5h-32Z" transform="translate(43.3 17.5)"/>
          <polygon points="727.6 78 671.6 104.5 697.6 171.4 727.6 78"/>
          <polygon points="654.9 0 690.7 0 671.6 104.5 654.9 0"/>
          <polygon points="697.6 171.4 726.8 256.9 668.7 256.9 697.6 171.4"/>
          <polygon points="697.6 171.4 772.4 195.6 784.5 220.6 784.5 256.9 723.4 256.9 697.6 171.4"/>
          <polygon points="727.6 78 772.4 195.6 697.6 171.4 727.6 78"/>
          <polygon points="727.6 78 741.1 59.8 772.4 195.6 727.6 78"/>
          <polygon points="762.9 0 784.5 0 784.5 174.1 772.4 195.6 741.1 59.8 762.9 0"/>
          <polygon points="717.9 0 727.6 78 741.1 59.8 720.8 0 717.9 0"/>
          <polygon points="772.4 195.6 784.5 174.1 784.5 220.6 772.4 195.6"/>
        </g>
      </g>
    </g>
    <g>
      <path id="SVGID-3" data-name="SVGID" d="M721.3,8.9a3.94,3.94,0,0,1,4.3,4.3V219.3a3.94,3.94,0,0,1-4.3,4.3H693.4c-3,0-4.3-1.6-4.3-4.3V49.7l-16.6,2.1c-3.5.5-5.6-1.3-5.6-4.8V21.3c0-3.5,1.6-5.4,5.1-5.6Z" transform="translate(43.3 17.5)"/>
      <g class="cls-4">
        <g>
          <polygon points="742.6 0 741.1 59.8 763.9 0 742.6 0"/>
          <polygon points="598.7 0 659 0 678.2 117.4 601.7 10.2 598.7 0"/>
          <polygon points="690.7 0 711 0 727.6 78 671 107.4 690.7 0"/>
          <path d="M677.5-17.5s21.1,72.8,21.2,69.8.6-69.8.6-69.8Z" transform="translate(43.3 17.5)"/>
          <polygon points="718.5 0 730 88.2 708.8 0 718.5 0"/>
          <polygon points="600.7 8.9 671.6 104.5 697.6 171.4 598.7 76.1 600.7 8.9"/>
          <polygon points="598.7 0 601.7 10.2 569.5 71.9 569.5 0 598.7 0"/>
          <polygon points="601.7 10.2 599.4 76.1 569.5 96.5 569.5 71.9 601.7 10.2"/>
          <polygon points="599.4 76.1 637.5 256.9 569.5 256.9 569.5 96.5 599.4 76.1"/>
          <path d="M556.1,58.6s98.6,95,98.2,95.3-28.1,85.5-28.1,85.5h-32Z" transform="translate(43.3 17.5)"/>
          <polygon points="727.6 78 671.6 104.5 697.6 171.4 727.6 78"/>
          <polygon points="654.9 0 690.7 0 671.6 104.5 654.9 0"/>
          <polygon points="697.6 171.4 726.8 256.9 668.7 256.9 697.6 171.4"/>
          <polygon points="697.6 171.4 772.4 195.6 784.5 220.6 784.5 256.9 723.4 256.9 697.6 171.4"/>
          <polygon points="727.6 78 772.4 195.6 697.6 171.4 727.6 78"/>
          <polygon points="727.6 78 741.1 59.8 772.4 195.6 727.6 78"/>
          <polygon points="762.9 0 784.5 0 784.5 174.1 772.4 195.6 741.1 59.8 762.9 0"/>
          <polygon points="717.9 0 727.6 78 741.1 59.8 720.8 0 717.9 0"/>
          <polygon points="772.4 195.6 784.5 174.1 784.5 220.6 772.4 195.6"/>
        </g>
      </g>
    </g>
  </g>
</svg>
