<?xml version="1.0" encoding="utf-8"?>
<!-- Generator: Adobe Illustrator 23.0.1, SVG Export Plug-In . SVG Version: 6.00 Build 0)  -->
<svg version="1.1" id="Layer_1" xmlns="http://www.w3.org/2000/svg" xmlns:xlink="http://www.w3.org/1999/xlink" x="0px" y="0px"
	 width="737.2px" height="230.5px" viewBox="0 0 737.2 230.5" style="enable-background:new 0 0 737.2 230.5;" xml:space="preserve"
	>
<style type="text/css">
	.st0{clip-path:url(#SVGID_2_);}
	.st1{clip-path:url(#SVGID_4_);}
	.st2{clip-path:url(#SVGID_6_);}
</style>
<g>
	<g>
		<defs>
			<path id="SVGID_1_" d="M41.9,9.8c1.9,0,3,1.1,3,3v143.5c0,1.9-1.1,3-3,3H22.5c-2.1,0-3-1.1-3-3V38.2L7.9,39.7
				C5.5,40.1,4,38.8,4,36.3V18.4c0-2.4,1.1-3.7,3.6-3.9L41.9,9.8z"/>
		</defs>
		<use xlink:href="#SVGID_1_"  style="overflow:visible;"/>
		<clipPath id="SVGID_2_">
			<use xlink:href="#SVGID_1_"  style="overflow:visible;"/>
		</clipPath>
		<g class="st0">
			<polygon points="82.3,-16 81.1,27.4 97.7,-16 			"/>
			<polygon points="-22.2,-16 21.6,-16 35.5,69.2 -20,-8.6 			"/>
			<polygon points="44.6,-16 59.3,-16 71.4,40.6 30.3,62 			"/>
			<path d="M66.5-16c0,0,15.3,52.8,15.4,50.6S82.3-16,82.3-16H66.5z"/>
			<polygon points="64.8,-16 73.1,48 57.7,-16 			"/>
			<polygon points="-20.7,-9.6 30.8,59.8 49.6,108.4 -22.2,39.2 			"/>
			<polygon points="-22.2,-16 -20,-8.6 -43.3,36.2 -43.3,-16 			"/>
			<polygon points="-20,-8.6 -21.7,39.2 -43.3,54 -43.3,36.2 			"/>
			<polygon points="-21.7,39.2 6,170.5 -43.3,170.5 -43.3,54 			"/>
			<path d="M-21.7,39.2c0,0,71.6,68.9,71.3,69.2c-0.2,0.3-20.4,62.1-20.4,62.1H6L-21.7,39.2z"/>
			<polygon points="71.4,40.6 30.8,59.8 49.6,108.4 			"/>
			<polygon points="18.6,-16 44.6,-16 30.8,59.8 			"/>
			<polygon points="49.6,108.4 70.8,170.5 28.6,170.5 			"/>
			<polygon points="49.6,108.4 103.9,126 112.6,144.1 112.6,170.5 68.3,170.5 			"/>
			<polygon points="71.4,40.6 103.9,126 49.6,108.4 			"/>
			<polygon points="71.4,40.6 81.1,27.4 103.9,126 			"/>
			<polygon points="97,-16 112.6,-16 112.6,110.3 103.9,126 81.1,27.4 			"/>
			<polygon points="64.3,-16 71.4,40.6 81.1,27.4 66.5,-16 			"/>
			<polygon points="103.9,126 112.6,110.3 112.6,144.1 			"/>
		</g>
	</g>
	<path d="M74.8,12.8c0-1.9,1.1-3,3-3h44.9c17.6,0,26.9,9.3,26.9,26.9v45.6c0,17.4-9.3,26.9-26.9,26.9h-22.4v47.1c0,1.9-0.9,3-3,3
		H77.8c-1.9,0-3-1.1-3-3V12.8z M116.7,84.6c5,0,7.5-2.8,7.5-7.5V41.9c0-4.9-2.4-7.5-7.5-7.5h-16.4v50.1H116.7z"/>
	<path d="M177.6,36.7c0-17.6,9.3-26.9,26.9-26.9h20.9c17.6,0,26.9,9.3,26.9,26.9v95.7c0,17.6-9.3,26.9-26.9,26.9h-20.9
		c-17.6,0-26.9-9.3-26.9-26.9V36.7z M220.8,135.2c4.9,0,7.5-2.4,7.5-7.5V41.4c0-4.9-2.6-7.5-7.5-7.5h-10.8c-4.9,0-7.5,2.6-7.5,7.5
		v86.3c0,5,2.6,7.5,7.5,7.5H220.8z"/>
	<path d="M302.8,9.8c1.9,0,3,1.1,3,3v143.5c0,1.9-1.1,3-3,3h-19.4c-2.1,0-3-1.1-3-3V12.8c0-1.9,0.9-3,3-3H302.8z"/>
	<path d="M410.6,9.8c1.9,0,3,1.1,3,3v143.5c0,1.9-1.1,3-3,3h-18.5c-1.7,0-2.8-0.7-3.4-2.4l-28.6-79.8h-0.9v79.2c0,1.9-0.9,3-3,3
		h-19.4c-1.9,0-3-1.1-3-3V12.8c0-1.9,1.1-3,3-3h18.5c1.7,0,2.8,0.7,3.4,2.4l28.4,79.4h1.1V12.8c0-1.9,0.9-3,3-3H410.6z"/>
	<path d="M509.7,9.8c2.1,0,3,1.1,3,3v18.7c0,1.9-0.9,3-3,3H488v121.9c0,2.1-0.9,3-3,3h-19.4c-1.9,0-3-0.9-3-3V34.5h-21.7
		c-1.9,0-3-1.1-3-3V12.8c0-1.9,1.1-3,3-3H509.7z"/>
	<g>
		<path d="M20.7,223.1v-25.6h4.5v25.6H20.7z"/>
		<path d="M74.5,223.1l-13.3-18.3v18.3h-4.5v-25.6h4.6l13.1,17.7v-17.7h4.5v25.6H74.5z"/>
		<path d="M116.4,223.1v-21.6h-7.7v-3.9h20v3.9h-7.7v21.6H116.4z"/>
		<path d="M158.5,223.1v-25.6h17.5v3.9h-13v6.6h12.8v3.9H163v7.1h13v3.9H158.5z"/>
		<path d="M221.3,223.1l-5.6-9.5h-4.5v9.5h-4.5v-25.6H218c5.1,0,8.4,3.3,8.4,8c0,4.5-3,7-6.1,7.5l6.3,10H221.3z M221.8,205.5
			c0-2.5-1.8-4-4.4-4h-6.2v8.1h6.2C219.9,209.6,221.8,208,221.8,205.5z"/>
		<path d="M274.9,223.1l-1.9-4.9h-11.7l-1.9,4.9h-5.1l10-25.6h5.6l10,25.6H274.9z M267.1,202l-4.6,12.2h9.2L267.1,202z"/>
		<path d="M306.3,210.3c0-7.9,5.9-13.2,13.4-13.2c5.1,0,8.4,2.6,10.2,5.7l-3.8,2c-1.2-2.1-3.7-3.7-6.4-3.7c-5.1,0-8.8,3.8-8.8,9.2
			c0,5.3,3.8,9.2,8.8,9.2c2.7,0,5.2-1.6,6.4-3.7l3.8,1.9c-2,3.1-5.1,5.8-10.3,5.8C312.2,223.6,306.3,218.2,306.3,210.3z"/>
		<path d="M365.7,223.1v-21.6H358v-3.9h20v3.9h-7.7v21.6H365.7z"/>
		<path d="M407.8,223.1v-25.6h4.5v25.6H407.8z"/>
		<path d="M451.2,223.1l-10-25.6h5.1l7.7,20.7l7.7-20.7h5.1l-10,25.6H451.2z"/>
		<path d="M495.7,223.1v-25.6h17.5v3.9h-13v6.6H513v3.9h-12.8v7.1h13v3.9H495.7z"/>
	</g>
	<g>
		<defs>
			<path id="SVGID_3_" d="M578.4,153c-2.7,1.6-3.8,3.5-3.8,6.4v23.3c0,3.5,1.9,5.4,5.4,5.4h29v-11c0-3.5,1.9-5.4,5.4-5.4h25.8
				c3.5,0,5.4,1.9,5.4,5.4v41.1c0,3.5-1.9,5.4-5.4,5.4h-96.6c-3.5,0-5.4-1.9-5.4-5.4v-79.2c0-5.1,1.9-7.2,7-9.9L609,94.8V55.1
				c0-7-4-10.7-10.7-10.7h-12.9c-7.2,0-10.7,3.8-10.7,10.7V76c0,2.7-1.6,4.3-4.3,4.3h-27.9c-3,0-4.3-1.6-4.3-4.3V47.6
				c0-25.2,13.4-38.6,38.6-38.6h30.1c25,0,38.6,13.4,38.6,38.6v63.3c0,5.1-2.1,7.2-7.2,9.9L578.4,153z"/>
		</defs>
		<use xlink:href="#SVGID_3_"  style="overflow:visible;"/>
		<clipPath id="SVGID_4_">
			<use xlink:href="#SVGID_3_"  style="overflow:visible;"/>
		</clipPath>
		<g class="st1">
			<polygon points="699.3,-17.5 697.8,42.3 720.6,-17.5 			"/>
			<polygon points="555.4,-17.5 615.7,-17.5 634.9,99.9 558.4,-7.3 			"/>
			<polygon points="647.4,-17.5 667.7,-17.5 684.3,60.5 627.7,89.9 			"/>
			<path d="M677.5-17.5c0,0,21.1,72.8,21.2,69.8c0.1-3,0.6-69.8,0.6-69.8H677.5z"/>
			<polygon points="675.2,-17.5 686.7,70.7 665.5,-17.5 			"/>
			<polygon points="557.4,-8.6 628.3,87 654.3,153.9 555.4,58.6 			"/>
			<polygon points="555.4,-17.5 558.4,-7.3 526.2,54.4 526.2,-17.5 			"/>
			<polygon points="558.4,-7.3 556.1,58.6 526.2,79 526.2,54.4 			"/>
			<polygon points="556.1,58.6 594.2,239.4 526.2,239.4 526.2,79 			"/>
			<path d="M556.1,58.6c0,0,98.6,95,98.2,95.3s-28.1,85.5-28.1,85.5h-32L556.1,58.6z"/>
			<polygon points="684.3,60.5 628.3,87 654.3,153.9 			"/>
			<polygon points="611.6,-17.5 647.4,-17.5 628.3,87 			"/>
			<polygon points="654.3,153.9 683.5,239.4 625.4,239.4 			"/>
			<polygon points="654.3,153.9 729.1,178.1 741.2,203.1 741.2,239.4 680.1,239.4 			"/>
			<polygon points="684.3,60.5 729.1,178.1 654.3,153.9 			"/>
			<polygon points="684.3,60.5 697.8,42.3 729.1,178.1 			"/>
			<polygon points="719.6,-17.5 741.2,-17.5 741.2,156.6 729.1,178.1 697.8,42.3 			"/>
			<polygon points="674.6,-17.5 684.3,60.5 697.8,42.3 677.5,-17.5 			"/>
			<polygon points="729.1,178.1 741.2,156.6 741.2,203.1 			"/>
		</g>
	</g>
	<g>
		<defs>
			<path id="SVGID_5_" d="M721.3,8.9c2.7,0,4.3,1.6,4.3,4.3v206.1c0,2.7-1.6,4.3-4.3,4.3h-27.9c-3,0-4.3-1.6-4.3-4.3V49.7l-16.6,2.1
				c-3.5,0.5-5.6-1.3-5.6-4.8V21.3c0-3.5,1.6-5.4,5.1-5.6L721.3,8.9z"/>
		</defs>
		<use xlink:href="#SVGID_5_"  style="overflow:visible;"/>
		<clipPath id="SVGID_6_">
			<use xlink:href="#SVGID_5_"  style="overflow:visible;"/>
		</clipPath>
		<g class="st2">
			<polygon points="699.3,-17.5 697.8,42.3 720.6,-17.5 			"/>
			<polygon points="555.4,-17.5 615.7,-17.5 634.9,99.9 558.4,-7.3 			"/>
			<polygon points="647.4,-17.5 667.7,-17.5 684.3,60.5 627.7,89.9 			"/>
			<path d="M677.5-17.5c0,0,21.1,72.8,21.2,69.8c0.1-3,0.6-69.8,0.6-69.8H677.5z"/>
			<polygon points="675.2,-17.5 686.7,70.7 665.5,-17.5 			"/>
			<polygon points="557.4,-8.6 628.3,87 654.3,153.9 555.4,58.6 			"/>
			<polygon points="555.4,-17.5 558.4,-7.3 526.2,54.4 526.2,-17.5 			"/>
			<polygon points="558.4,-7.3 556.1,58.6 526.2,79 526.2,54.4 			"/>
			<polygon points="556.1,58.6 594.2,239.4 526.2,239.4 526.2,79 			"/>
			<path d="M556.1,58.6c0,0,98.6,95,98.2,95.3s-28.1,85.5-28.1,85.5h-32L556.1,58.6z"/>
			<polygon points="684.3,60.5 628.3,87 654.3,153.9 			"/>
			<polygon points="611.6,-17.5 647.4,-17.5 628.3,87 			"/>
			<polygon points="654.3,153.9 683.5,239.4 625.4,239.4 			"/>
			<polygon points="654.3,153.9 729.1,178.1 741.2,203.1 741.2,239.4 680.1,239.4 			"/>
			<polygon points="684.3,60.5 729.1,178.1 654.3,153.9 			"/>
			<polygon points="684.3,60.5 697.8,42.3 729.1,178.1 			"/>
			<polygon points="719.6,-17.5 741.2,-17.5 741.2,156.6 729.1,178.1 697.8,42.3 			"/>
			<polygon points="674.6,-17.5 684.3,60.5 697.8,42.3 677.5,-17.5 			"/>
			<polygon points="729.1,178.1 741.2,156.6 741.2,203.1 			"/>
		</g>
	</g>
</g>
</svg>
